<svg xmlns="http://www.w3.org/2000/svg" xmlns:xlink="http://www.w3.org/1999/xlink" contentStyleType="text/css" height="444px" preserveAspectRatio="none" style="width:310px;height:444px;background:#FFFFFF;" version="1.1" viewBox="0 0 310 444" width="310px" zoomAndPan="magnify"><defs/><g><!--cluster Application--><g id="cluster_Application"><path d="M8.5,6 L98.7979,6 A3.75,3.75 0 0 1 101.2979,8.5 L108.2979,28.2969 L221.5,28.2969 A2.5,2.5 0 0 1 224,30.7969 L224,313.39 A2.5,2.5 0 0 1 221.5,315.89 L8.5,315.89 A2.5,2.5 0 0 1 6,313.39 L6,8.5 A2.5,2.5 0 0 1 8.5,6 " fill="none" style="stroke:#000000;stroke-width:1.5;"/><line style="stroke:#000000;stroke-width:1.5;" x1="6" x2="108.2979" y1="28.2969" y2="28.2969"/><text fill="#000000" font-family="sans-serif" font-size="14" font-weight="bold" lengthAdjust="spacing" textLength="89.2979" x="10" y="20.9951">Application</text></g><!--cluster Libraries--><g id="cluster_Libraries"><path d="M76.5,339.89 L147.124,339.89 A3.75,3.75 0 0 1 149.624,342.39 L156.624,362.1869 L300.5,362.1869 A2.5,2.5 0 0 1 303,364.6869 L303,434.69 A2.5,2.5 0 0 1 300.5,437.19 L76.5,437.19 A2.5,2.5 0 0 1 74,434.69 L74,342.39 A2.5,2.5 0 0 1 76.5,339.89 " fill="none" style="stroke:#000000;stroke-width:1.5;"/><line style="stroke:#000000;stroke-width:1.5;" x1="74" x2="156.624" y1="362.1869" y2="362.1869"/><text fill="#000000" font-family="sans-serif" font-size="14" font-weight="bold" lengthAdjust="spacing" textLength="69.624" x="78" y="354.8851">Libraries</text></g><!--entity main.py--><g id="elem_main.py"><rect fill="#F1F1F1" height="46.2969" rx="2.5" ry="2.5" style="stroke:#181818;stroke-width:0.5;" width="96.6016" x="80.7" y="41"/><rect fill="#F1F1F1" height="10" style="stroke:#181818;stroke-width:0.5;" width="15" x="157.3016" y="46"/><rect fill="#F1F1F1" height="2" style="stroke:#181818;stroke-width:0.5;" width="4" x="155.3016" y="48"/><rect fill="#F1F1F1" height="2" style="stroke:#181818;stroke-width:0.5;" width="4" x="155.3016" y="52"/><text fill="#000000" font-family="sans-serif" font-size="14" lengthAdjust="spacing" textLength="56.6016" x="95.7" y="73.9951">main.py</text></g><!--entity MainWindow--><g id="elem_MainWindow"><rect fill="#F1F1F1" height="46.2969" rx="2.5" ry="2.5" style="stroke:#181818;stroke-width:0.5;" width="128.9287" x="64.54" y="147.3"/><rect fill="#F1F1F1" height="10" style="stroke:#181818;stroke-width:0.5;" width="15" x="173.4687" y="152.3"/><rect fill="#F1F1F1" height="2" style="stroke:#181818;stroke-width:0.5;" width="4" x="171.4687" y="154.3"/><rect fill="#F1F1F1" height="2" style="stroke:#181818;stroke-width:0.5;" width="4" x="171.4687" y="158.3"/><text fill="#000000" font-family="sans-serif" font-size="14" lengthAdjust="spacing" textLength="88.9287" x="79.54" y="180.2951">MainWindow</text></g><!--entity image_operations.py--><g id="elem_image_operations.py"><rect fill="#F1F1F1" height="46.2969" rx="2.5" ry="2.5" style="stroke:#181818;stroke-width:0.5;" width="186.7402" x="21.63" y="253.6"/><rect fill="#F1F1F1" height="10" style="stroke:#181818;stroke-width:0.5;" width="15" x="188.3702" y="258.6"/><rect fill="#F1F1F1" height="2" style="stroke:#181818;stroke-width:0.5;" width="4" x="186.3702" y="260.6"/><rect fill="#F1F1F1" height="2" style="stroke:#181818;stroke-width:0.5;" width="4" x="186.3702" y="264.6"/><text fill="#000000" font-family="sans-serif" font-size="14" lengthAdjust="spacing" textLength="146.7402" x="36.63" y="286.5951">image_operations.py</text></g><!--entity PyQt5--><g id="elem_PyQt5"><rect fill="#F1F1F1" height="46.2969" rx="2.5" ry="2.5" style="stroke:#181818;stroke-width:0.5;" width="82.1436" x="204.93" y="374.89"/><rect fill="#F1F1F1" height="10" style="stroke:#181818;stroke-width:0.5;" width="15" x="267.0736" y="379.89"/><rect fill="#F1F1F1" height="2" style="stroke:#181818;stroke-width:0.5;" width="4" x="265.0736" y="381.89"/><rect fill="#F1F1F1" height="2" style="stroke:#181818;stroke-width:0.5;" width="4" x="265.0736" y="385.89"/><text fill="#000000" font-family="sans-serif" font-size="14" lengthAdjust="spacing" textLength="42.1436" x="219.93" y="407.8851">PyQt5</text></g><!--entity Pillow--><g id="elem_Pillow"><rect fill="#F1F1F1" height="46.2969" rx="2.5" ry="2.5" style="stroke:#181818;stroke-width:0.5;" width="80.127" x="89.94" y="374.89"/><rect fill="#F1F1F1" height="10" style="stroke:#181818;stroke-width:0.5;" width="15" x="150.067" y="379.89"/><rect fill="#F1F1F1" height="2" style="stroke:#181818;stroke-width:0.5;" width="4" x="148.067" y="381.89"/><rect fill="#F1F1F1" height="2" style="stroke:#181818;stroke-width:0.5;" width="4" x="148.067" y="385.89"/><text fill="#000000" font-family="sans-serif" font-size="14" lengthAdjust="spacing" textLength="40.127" x="104.94" y="407.8851">Pillow</text></g><!--link main.py to MainWindow--><g id="link_main.py_MainWindow"><path d="M129,87.78 C129,105.28 129,123.38 129,140.86 " fill="none" id="main.py-to-MainWindow" style="stroke:#181818;stroke-width:1;"/><polygon fill="#181818" points="129,146.86,133,137.86,129,141.86,125,137.86,129,146.86" style="stroke:#181818;stroke-width:1;"/></g><!--link MainWindow to image_operations.py--><g id="link_MainWindow_image_operations.py"><path d="M125.96,194.08 C123.61,211.57 121.1794,229.7335 118.8294,247.2135 " fill="none" id="MainWindow-to-image_operations.py" style="stroke:#181818;stroke-width:1;"/><polygon fill="#181818" points="118.03,253.16,123.1935,244.7732,118.6962,248.2046,115.2648,243.7073,118.03,253.16" style="stroke:#181818;stroke-width:1;"/></g><!--link MainWindow to PyQt5--><g id="link_MainWindow_PyQt5"><path d="M167.28,193.96 C188.13,208.32 212.38,228.85 226,253.6 C247.22,292.14 249.0129,339.0245 247.8629,368.6245 " fill="none" id="MainWindow-to-PyQt5" style="stroke:#181818;stroke-width:1;"/><polygon fill="#181818" points="247.63,374.62,251.9764,365.7821,247.8241,369.6238,243.9824,365.4715,247.63,374.62" style="stroke:#181818;stroke-width:1;"/></g><!--link image_operations.py to Pillow--><g id="link_image_operations.py_Pillow"><path d="M117.82,300.18 C120.5,321.51 123.7606,347.457 126.4406,368.747 " fill="none" id="image_operations.py-to-Pillow" style="stroke:#181818;stroke-width:1;"/><polygon fill="#181818" points="127.19,374.7,130.0346,365.2709,126.5655,369.7392,122.0973,366.2701,127.19,374.7" style="stroke:#181818;stroke-width:1;"/></g><!--SRC=[AqXCpavCJrLGSYmeoCbCJYp9pCzJKgZcKb28patCpDChg8nLqDMrKuZs1VB2C_DIyijZGP98N8XyPYxGcFZyWjGYi1d589rSjLnS1J0BV3AJYXABCbEBeSO7L0QMc8BD2iZCoG4P2rIDQIvK6LRpeIeWsW40]--></g></svg>