<svg xmlns="http://www.w3.org/2000/svg" xmlns:xlink="http://www.w3.org/1999/xlink" contentStyleType="text/css" height="306px" preserveAspectRatio="none" style="width:628px;height:306px;background:#FFFFFF;" version="1.1" viewBox="0 0 628 306" width="628px" zoomAndPan="magnify"><defs/><g><!--entity User--><g id="elem_User"><ellipse cx="318.5051" cy="14" fill="#F1F1F1" rx="8" ry="8" style="stroke:#181818;stroke-width:0.5;"/><path d="M318.5051,22 L318.5051,49 M305.5051,30 L331.5051,30 M318.5051,49 L305.5051,64 M318.5051,49 L331.5051,64 " fill="none" style="stroke:#181818;stroke-width:0.5;"/><text fill="#000000" font-family="sans-serif" font-size="14" lengthAdjust="spacing" textLength="31.9102" x="302.55" y="78.4951">User</text></g><g id="elem_UC1"><ellipse cx="75.5064" cy="161.5513" fill="#F1F1F1" rx="69.5064" ry="16.3013" style="stroke:#181818;stroke-width:0.5;"/><text fill="#000000" font-family="sans-serif" font-size="14" lengthAdjust="spacing" textLength="91.4854" x="26.7637" y="165.2988">Select Image</text></g><g id="elem_UC2"><ellipse cx="261.5061" cy="161.5452" fill="#F1F1F1" rx="81.7761" ry="18.7552" style="stroke:#181818;stroke-width:0.5;"/><text fill="#000000" font-family="sans-serif" font-size="14" lengthAdjust="spacing" textLength="122.7871" x="199.0957" y="164.7283">Enter Parameters</text></g><g id="elem_UC3"><ellipse cx="451.5143" cy="161.5469" fill="#F1F1F1" rx="73.4343" ry="17.0869" style="stroke:#181818;stroke-width:0.5;"/><text fill="#000000" font-family="sans-serif" font-size="14" lengthAdjust="spacing" textLength="101.958" x="397.5353" y="165.2944">Process Image</text></g><g id="elem_UC4"><ellipse cx="525.5068" cy="279.1114" fill="#F1F1F1" rx="97.0068" ry="21.8014" style="stroke:#181818;stroke-width:0.5;"/><text fill="#000000" font-family="sans-serif" font-size="14" lengthAdjust="spacing" textLength="157.4385" x="446.7875" y="281.958">View Processed Image</text></g><!--link User to UC1--><g id="link_User_UC1"><path d="M302.19,52.43 C261.85,71.67 162.4355,119.0868 110.6955,143.7668 " fill="none" id="User-to-UC1" style="stroke:#181818;stroke-width:1;"/><polygon fill="#181818" points="105.28,146.35,115.1253,146.0855,109.7929,144.1974,111.6811,138.8649,105.28,146.35" style="stroke:#181818;stroke-width:1;"/></g><!--link User to UC2--><g id="link_User_UC2"><path d="M302.17,77.86 C291.84,98.87 281.5395,119.8267 273.0595,137.0567 " fill="none" id="User-to-UC2" style="stroke:#181818;stroke-width:1;"/><polygon fill="#181818" points="270.41,142.44,277.9731,136.1313,272.6179,137.9539,270.7953,132.5987,270.41,142.44" style="stroke:#181818;stroke-width:1;"/></g><!--link User to UC3--><g id="link_User_UC3"><path d="M334.81,58.86 C359.79,80.62 402.8063,118.1185 428.8363,140.7985 " fill="none" id="User-to-UC3" style="stroke:#181818;stroke-width:1;"/><polygon fill="#181818" points="433.36,144.74,429.2021,135.8119,429.5902,141.4554,423.9467,141.8435,433.36,144.74" style="stroke:#181818;stroke-width:1;"/></g><!--link User to UC4--><g id="link_User_UC4"><path d="M334.86,46.64 C376.68,52.66 488.05,74.63 542.51,142.8 C566.23,172.49 565.52,190.65 555.51,227.31 C552.59,237.98 550.0713,243.6603 544.3413,252.4703 " fill="none" id="User-to-UC4" style="stroke:#181818;stroke-width:1;"/><polygon fill="#181818" points="541.07,257.5,549.3302,252.1363,543.7961,253.3085,542.6238,247.7745,541.07,257.5" style="stroke:#181818;stroke-width:1;"/></g><!--link UC3 to UC4--><g id="link_UC3_UC4"><path d="M461.8,178.62 C474.9,199.08 494.3437,229.4476 508.8137,252.0376 " fill="none" id="UC3-to-UC4" style="stroke:#181818;stroke-width:1;"/><polygon fill="#181818" points="512.05,257.09,510.5638,247.3539,509.3531,252.8797,503.8273,251.669,512.05,257.09" style="stroke:#181818;stroke-width:1;"/><text fill="#000000" font-family="sans-serif" font-size="13" lengthAdjust="spacing" textLength="54.0947" x="494.51" y="223.3769">Includes</text></g><!--SRC=[LOuz2uD044Jx-nM3lKMyL1Pf98MT44o_d4C8-06x9_dxYK6vizl7lDqT2N5Hz4Prgp684SM38qD4EycB1SJGDvUKtkT8HISg4t-JxKQLZ4wNGBFJ0P_YvviVx0w7atLrRgk2ihpzdsPGvU1ps9OQVm1gj7COru7s1G00]--></g></svg>