<svg xmlns="http://www.w3.org/2000/svg" xmlns:xlink="http://www.w3.org/1999/xlink" contentStyleType="text/css" height="524px" preserveAspectRatio="none" style="width:341px;height:524px;background:#FFFFFF;" version="1.1" viewBox="0 0 341 524" width="341px" zoomAndPan="magnify"><defs/><g><ellipse cx="173.7441" cy="20" fill="#222222" rx="10" ry="10" style="stroke:#222222;stroke-width:1;"/><rect fill="#F1F1F1" height="33.9688" rx="12.5" ry="12.5" style="stroke:#181818;stroke-width:0.5;" width="227.0352" x="60.2266" y="50"/><text fill="#000000" font-family="sans-serif" font-size="12" lengthAdjust="spacing" textLength="207.0352" x="70.2266" y="71.1387">Enter width, height, rotation angle</text><rect fill="#F1F1F1" height="33.9688" rx="12.5" ry="12.5" style="stroke:#181818;stroke-width:0.5;" width="98.2109" x="124.6387" y="103.9688"/><text fill="#000000" font-family="sans-serif" font-size="12" lengthAdjust="spacing" textLength="78.2109" x="134.6387" y="125.1074">Select image</text><polygon fill="#F1F1F1" points="138.3835,157.9375,209.1047,157.9375,221.1047,169.9375,209.1047,181.9375,138.3835,181.9375,126.3835,169.9375,138.3835,157.9375" style="stroke:#181818;stroke-width:0.5;"/><text fill="#000000" font-family="sans-serif" font-size="11" lengthAdjust="spacing" textLength="70.7212" x="138.3835" y="173.7456">Valid inputs?</text><text fill="#000000" font-family="sans-serif" font-size="11" lengthAdjust="spacing" textLength="19.0083" x="107.3752" y="167.3433">yes</text><text fill="#000000" font-family="sans-serif" font-size="11" lengthAdjust="spacing" textLength="13.7017" x="221.1047" y="167.3433">no</text><rect fill="#F1F1F1" height="33.9688" rx="12.5" ry="12.5" style="stroke:#181818;stroke-width:0.5;" width="107.1875" x="35.3252" y="191.9375"/><text fill="#000000" font-family="sans-serif" font-size="12" lengthAdjust="spacing" textLength="87.1875" x="45.3252" y="213.0762">Process image</text><rect fill="#F1F1F1" height="33.9688" rx="12.5" ry="12.5" style="stroke:#181818;stroke-width:0.5;" width="100.1797" x="38.8291" y="245.9063"/><text fill="#000000" font-family="sans-serif" font-size="12" lengthAdjust="spacing" textLength="80.1797" x="48.8291" y="267.0449">Resize image</text><rect fill="#F1F1F1" height="33.9688" rx="12.5" ry="12.5" style="stroke:#181818;stroke-width:0.5;" width="101.0176" x="38.4102" y="299.875"/><text fill="#000000" font-family="sans-serif" font-size="12" lengthAdjust="spacing" textLength="81.0176" x="48.4102" y="321.0137">Rotate image</text><rect fill="#F1F1F1" height="33.9688" rx="12.5" ry="12.5" style="stroke:#181818;stroke-width:0.5;" width="155.8379" x="11" y="353.8438"/><text fill="#000000" font-family="sans-serif" font-size="12" lengthAdjust="spacing" textLength="135.8379" x="21" y="374.9824">Save processed image</text><rect fill="#F1F1F1" height="33.9688" rx="12.5" ry="12.5" style="stroke:#181818;stroke-width:0.5;" width="136.3145" x="20.7617" y="407.8125"/><text fill="#000000" font-family="sans-serif" font-size="12" lengthAdjust="spacing" textLength="116.3145" x="30.7617" y="428.9512">Display image in UI</text><rect fill="#F1F1F1" height="33.9688" rx="12.5" ry="12.5" style="stroke:#181818;stroke-width:0.5;" width="143.4629" x="186.8379" y="191.9375"/><text fill="#000000" font-family="sans-serif" font-size="12" lengthAdjust="spacing" textLength="123.4629" x="196.8379" y="213.0762">Show error message</text><polygon fill="#F1F1F1" points="173.7441,447.7813,185.7441,459.7813,173.7441,471.7813,161.7441,459.7813,173.7441,447.7813" style="stroke:#181818;stroke-width:0.5;"/><ellipse cx="173.7441" cy="502.7813" fill="none" rx="11" ry="11" style="stroke:#222222;stroke-width:1;"/><ellipse cx="173.7441" cy="502.7813" fill="#222222" rx="6" ry="6" style="stroke:#222222;stroke-width:1;"/><line style="stroke:#181818;stroke-width:1;" x1="173.7441" x2="173.7441" y1="30" y2="50"/><polygon fill="#181818" points="169.7441,40,173.7441,50,177.7441,40,173.7441,44" style="stroke:#181818;stroke-width:1;"/><line style="stroke:#181818;stroke-width:1;" x1="173.7441" x2="173.7441" y1="83.9688" y2="103.9688"/><polygon fill="#181818" points="169.7441,93.9688,173.7441,103.9688,177.7441,93.9688,173.7441,97.9688" style="stroke:#181818;stroke-width:1;"/><line style="stroke:#181818;stroke-width:1;" x1="88.9189" x2="88.9189" y1="225.9063" y2="245.9063"/><polygon fill="#181818" points="84.9189,235.9063,88.9189,245.9063,92.9189,235.9063,88.9189,239.9063" style="stroke:#181818;stroke-width:1;"/><line style="stroke:#181818;stroke-width:1;" x1="88.9189" x2="88.9189" y1="279.875" y2="299.875"/><polygon fill="#181818" points="84.9189,289.875,88.9189,299.875,92.9189,289.875,88.9189,293.875" style="stroke:#181818;stroke-width:1;"/><line style="stroke:#181818;stroke-width:1;" x1="88.9189" x2="88.9189" y1="333.8438" y2="353.8438"/><polygon fill="#181818" points="84.9189,343.8438,88.9189,353.8438,92.9189,343.8438,88.9189,347.8438" style="stroke:#181818;stroke-width:1;"/><line style="stroke:#181818;stroke-width:1;" x1="88.9189" x2="88.9189" y1="387.8125" y2="407.8125"/><polygon fill="#181818" points="84.9189,397.8125,88.9189,407.8125,92.9189,397.8125,88.9189,401.8125" style="stroke:#181818;stroke-width:1;"/><line style="stroke:#181818;stroke-width:1;" x1="126.3835" x2="88.9189" y1="169.9375" y2="169.9375"/><line style="stroke:#181818;stroke-width:1;" x1="88.9189" x2="88.9189" y1="169.9375" y2="191.9375"/><polygon fill="#181818" points="84.9189,181.9375,88.9189,191.9375,92.9189,181.9375,88.9189,185.9375" style="stroke:#181818;stroke-width:1;"/><line style="stroke:#181818;stroke-width:1;" x1="221.1047" x2="258.5693" y1="169.9375" y2="169.9375"/><line style="stroke:#181818;stroke-width:1;" x1="258.5693" x2="258.5693" y1="169.9375" y2="191.9375"/><polygon fill="#181818" points="254.5693,181.9375,258.5693,191.9375,262.5693,181.9375,258.5693,185.9375" style="stroke:#181818;stroke-width:1;"/><line style="stroke:#181818;stroke-width:1;" x1="88.9189" x2="88.9189" y1="441.7813" y2="459.7813"/><line style="stroke:#181818;stroke-width:1;" x1="88.9189" x2="161.7441" y1="459.7813" y2="459.7813"/><polygon fill="#181818" points="151.7441,455.7813,161.7441,459.7813,151.7441,463.7813,155.7441,459.7813" style="stroke:#181818;stroke-width:1;"/><line style="stroke:#181818;stroke-width:1;" x1="258.5693" x2="258.5693" y1="225.9063" y2="459.7813"/><line style="stroke:#181818;stroke-width:1;" x1="258.5693" x2="185.7441" y1="459.7813" y2="459.7813"/><polygon fill="#181818" points="195.7441,455.7813,185.7441,459.7813,195.7441,463.7813,191.7441,459.7813" style="stroke:#181818;stroke-width:1;"/><line style="stroke:#181818;stroke-width:1;" x1="173.7441" x2="173.7441" y1="137.9375" y2="157.9375"/><polygon fill="#181818" points="169.7441,147.9375,173.7441,157.9375,177.7441,147.9375,173.7441,151.9375" style="stroke:#181818;stroke-width:1;"/><line style="stroke:#181818;stroke-width:1;" x1="173.7441" x2="173.7441" y1="471.7813" y2="491.7813"/><polygon fill="#181818" points="169.7441,481.7813,173.7441,491.7813,177.7441,481.7813,173.7441,485.7813" style="stroke:#181818;stroke-width:1;"/><!--SRC=[JOqn3eCm34NtdEAF87426BgqGxUggDqZCCHII53i5j7JDmLLOlJpVtgYDgcfBq4fOU5UNGL7F3gjaA9QvHXWm-YfCNLBdZe5JtRC9myedjPp3mxpI-LKGXq552j9QO3wbc978lzz9dSI_j0H_197qDetOTv5wW-FCylixRgJNCJZsXZoGYX2t7AjYmiefPWmPNiJAVGy6D4uVm40]--></g></svg>